<svg width="100" height="49" viewBox="0 0 100 49" fill="none" xmlns="http://www.w3.org/2000/svg">
<path d="M80.7357 47.5944H83.6426V37.5927C83.6426 34.4067 85.3506 32.0417 88.8816 32.0417C91.1151 32.0417 92.4782 33.4541 92.4782 35.6056V47.5944H95.3851V35.9504C95.3851 32.1567 93.9399 29.4797 89.2922 29.4797C86.763 29.4797 84.7758 30.5144 83.5441 32.6987H83.4784V29.8903H80.7357V47.5944ZM63.5244 38.7424C63.5244 34.4231 65.9878 32.0253 69.0425 32.0253C72.0972 32.0253 74.5607 34.4231 74.5607 38.7424C74.5607 43.0288 72.0972 45.4265 69.0425 45.4265C65.9878 45.4265 63.508 43.0288 63.5244 38.7424ZM60.4369 38.7424C60.4369 43.9156 63.4094 47.9885 69.0425 47.9885C74.6756 47.9885 77.6482 43.9156 77.6482 38.7424C77.6482 33.5362 74.6756 29.4633 69.0425 29.4633C63.4094 29.4633 60.4369 33.5362 60.4369 38.7424ZM59.5993 29.8739H56.5446L51.7162 44.6382H51.6505L46.6908 29.8739H43.439L50.0082 47.578H53.1286L59.5993 29.8739ZM43.0613 45.2623C42.779 45.3736 42.4778 45.4294 42.1744 45.4265C41.2547 45.4265 41.2547 44.8025 41.2547 43.4394V34.3246C41.2547 30.1859 37.7895 29.4633 34.6034 29.4633C30.6618 29.4633 27.2787 31.0071 27.098 35.3921H30.0049C30.1363 32.7808 31.9593 32.0417 34.4227 32.0417C36.2785 32.0417 38.3643 32.4523 38.3643 34.9815C38.3643 37.1657 35.6216 36.9687 32.4027 37.5927C29.3808 38.1676 26.4083 39.038 26.4083 43.0452C26.4083 46.5762 29.0524 48.005 32.2713 48.005C34.7348 48.005 36.9026 47.151 38.5121 45.2623C38.5121 47.1838 39.4646 48.005 40.9755 48.005C41.8952 48.005 42.5521 47.8407 43.0613 47.5287V45.2623ZM38.3314 41.4193C38.3314 43.0288 36.7548 45.4265 32.9118 45.4265C31.1381 45.4265 29.4794 44.7368 29.4794 42.8153C29.4794 40.6639 31.1217 39.9741 33.0432 39.6292C34.9975 39.2843 37.1818 39.2515 38.315 38.4303L38.3314 41.4193ZM20.3317 47.5944H23.2386V23.124H20.3317V47.5944ZM0 47.5944H16.9814V44.8517H3.25177V36.3939H15.9632V33.6512H3.25177V25.8667H16.8829V23.124H0V47.5944Z" fill="black"/>
<path d="M72.606 11.184C72.6416 10.2092 72.6196 9.23304 72.5403 8.26074C63.8361 8.99978 51.6173 14.5836 40.3018 23.6984C39.0208 24.7331 37.7891 25.7677 36.623 26.8188H37.3457C37.5592 26.6546 37.7562 26.4739 37.9697 26.2932C49.8765 16.7186 62.8835 11.1512 71.7191 11.1512C72.0148 11.1512 72.3104 11.1676 72.606 11.184Z" fill="#0C2074"/>
<path d="M82.2303 10.7895C80.9821 9.50855 79.2084 8.75309 77.0898 8.4082C77.2324 9.65693 77.3091 10.9123 77.3198 12.1691C78.3114 12.5765 79.2107 13.1798 79.9639 13.9428C81.5734 15.5851 82.296 17.835 82.1318 20.6434C82.0168 22.5485 81.4912 24.6342 80.6044 26.8349H81.0807C83.0022 23.3368 84.1354 20.0522 84.316 17.1945C84.4638 14.5012 83.7576 12.3497 82.2303 10.7895Z" fill="#0C2074"/>
<path d="M75.0865 3.44884C74.3146 1.16604 73.1814 0 71.7197 0H71.7033C69.0263 0 65.6925 3.94153 62.375 10.7407C62.9498 10.5272 63.5246 10.3301 64.083 10.133C66.3987 6.24076 68.5993 3.94153 70.1924 3.94153H70.3402C71.227 4.02365 71.884 4.87765 72.2617 6.48711C73.2471 10.6257 72.1632 18.7387 69.749 27.2951C71.6048 27.4101 73.2307 27.8699 74.5938 28.6418C76.4496 17.9832 76.778 8.42503 75.0865 3.44884Z" fill="#0075C9"/>
<path d="M60.5358 14.8137C59.7803 16.6038 59.0413 18.5253 58.3023 20.5946C57.5796 22.6311 56.9063 24.7168 56.2822 26.819H56.9884C57.9877 23.5851 59.1553 20.4056 60.4865 17.2936C60.9299 16.2754 61.3734 15.3228 61.8168 14.3867C61.3898 14.5181 60.9628 14.6495 60.5358 14.8137Z" fill="#0075C9"/>
<path d="M99.3594 44.9331C99.6338 45.1901 99.7949 45.5456 99.8072 45.9213C99.8195 46.2971 99.6821 46.6623 99.4251 46.9367C99.2978 47.0726 99.1451 47.1821 98.9755 47.2589C98.8059 47.3357 98.6229 47.3784 98.4369 47.3845C98.0611 47.3968 97.6958 47.2594 97.4214 47.0024L97.3557 46.9367C97.1601 46.7393 97.0268 46.4888 96.9725 46.2162C96.9182 45.9436 96.9452 45.6611 97.0502 45.4038C97.1552 45.1465 97.3336 44.9258 97.5632 44.7691C97.7927 44.6124 98.0632 44.5266 98.3411 44.5225C98.7205 44.5243 99.0849 44.6712 99.3594 44.9331ZM99.5236 44.7689C99.2552 44.4979 98.9011 44.3285 98.5217 44.2898C98.1423 44.251 97.7612 44.3452 97.4436 44.5564C97.1259 44.7675 96.8915 45.0824 96.7804 45.4472C96.6693 45.812 96.6883 46.2041 96.8343 46.5565C96.9802 46.9088 97.2441 47.1995 97.5807 47.3789C97.9172 47.5582 98.3057 47.6151 98.6795 47.5397C99.0534 47.4644 99.3895 47.2615 99.6303 46.9658C99.8711 46.6701 100.002 46.2999 99.9999 45.9185C99.9934 45.4886 99.823 45.0774 99.5236 44.7689ZM98.6039 45.8528C98.5096 45.8879 98.408 45.8992 98.3083 45.8856H98.0291V45.2287H98.3083C98.4378 45.217 98.5681 45.2396 98.686 45.2944C98.7268 45.3241 98.7589 45.3641 98.7791 45.4102C98.7993 45.4564 98.8068 45.5071 98.801 45.5572C98.8051 45.6212 98.788 45.6849 98.7524 45.7383C98.7168 45.7917 98.6646 45.8319 98.6039 45.8528ZM97.7006 46.8218H98.0127V46.1156H98.259C98.3831 46.1053 98.5078 46.1279 98.6203 46.1813C98.6809 46.2297 98.7278 46.2929 98.7566 46.3649C98.7854 46.4368 98.795 46.515 98.7846 46.5918V46.8382H99.0802L99.0638 46.8218C99.0504 46.7907 99.0447 46.7569 99.0473 46.7232V46.4604C99.0472 46.3589 99.0125 46.2604 98.9488 46.1813C98.9112 46.1321 98.8643 46.0909 98.8108 46.0599C98.7572 46.0289 98.6981 46.0087 98.6367 46.0006C98.7289 45.9908 98.8182 45.9629 98.8995 45.9185C98.9565 45.8773 99.0027 45.8229 99.0342 45.76C99.0657 45.6971 99.0814 45.6275 99.0802 45.5572C99.0869 45.4611 99.0637 45.3652 99.0137 45.2829C98.9637 45.2005 98.8894 45.1357 98.801 45.0973C98.6409 45.0513 98.4749 45.0292 98.3083 45.0316H97.6842L97.7006 46.8218Z" fill="black"/>
</svg>
