{
    "asset" : {
        "generator" : "Khronos glTF Blender I/O v1.4.40",
        "version" : "2.0"
    },
    "scene" : 0,
    "scenes" : [
        {
            "name" : "Scene",
            "nodes" : [
                0,
                1,
                2,
                3,
                4,
                5
            ]
        }
    ],
    "nodes" : [
        {
            "name" : "Light",
            "rotation" : [
                0.16907575726509094,
                0.7558803558349609,
                -0.27217137813568115,
                0.570947527885437
            ],
            "translation" : [
                4.076245307922363,
                5.903861999511719,
                -1.0054539442062378
            ]
        },
        {
            "name" : "Camera",
            "rotation" : [
                0.6009631752967834,
                -0.355376660823822,
                0.33855491876602173,
                0.6308179497718811
            ],
            "translation" : [
                -2.0680792331695557,
                0.25202229619026184,
                1.228036642074585
            ]
        },
        {
            "mesh" : 0,
            "name" : "iphone 10",
            "rotation" : [
                0.0004078917554579675,
                0.7070354223251343,
                2.993647285620682e-05,
                -0.7071780562400818
            ],
            "scale" : [
                7.858201503753662,
                7.8582024574279785,
                7.858201503753662
            ],
            "translation" : [
                0.016623996198177338,
                0.07350528240203857,
                0.0038996636867523193
            ]
        },
        {
            "name" : "Point",
            "translation" : [
                0.44334983825683594,
                1.9396297931671143,
                0.5502007007598877
            ]
        },
        {
            "name" : "Point.001",
            "translation" : [
                0.44334983825683594,
                0.5422999858856201,
                0.5502007007598877
            ]
        },
        {
            "name" : "Point.002",
            "translation" : [
                0.44334983825683594,
                1.822298288345337,
                -1.1428711414337158
            ]
        }
    ],
    "materials" : [
        {
            "doubleSided" : true,
            "name" : "IPHONE",
            "pbrMetallicRoughness" : {
                "baseColorTexture" : {
                    "index" : 0,
                    "texCoord" : 0
                },
                "metallicRoughnessTexture" : {
                    "index" : 1,
                    "texCoord" : 0
                }
            }
        },
        {
            "doubleSided" : true,
            "emissiveFactor" : [
                1,
                1,
                1
            ],
            "emissiveTexture" : {
                "index" : 2,
                "texCoord" : 0
            },
            "name" : "iphone-x-screenshot",
            "pbrMetallicRoughness" : {}
        },
        {
            "doubleSided" : true,
            "name" : "glass",
            "pbrMetallicRoughness" : {}
        }
    ],
    "meshes" : [
        {
            "name" : "Cube.001",
            "primitives" : [
                {
                    "attributes" : {
                        "POSITION" : 0,
                        "NORMAL" : 1,
                        "TEXCOORD_0" : 2
                    },
                    "indices" : 3,
                    "material" : 0
                },
                {
                    "attributes" : {
                        "POSITION" : 4,
                        "NORMAL" : 5,
                        "TEXCOORD_0" : 6
                    },
                    "indices" : 7,
                    "material" : 1
                },
                {
                    "attributes" : {
                        "POSITION" : 8,
                        "NORMAL" : 9,
                        "TEXCOORD_0" : 10
                    },
                    "indices" : 11,
                    "material" : 2
                }
            ]
        }
    ],
    "textures" : [
        {
            "sampler" : 0,
            "source" : 0
        },
        {
            "sampler" : 0,
            "source" : 1
        },
        {
            "sampler" : 0,
            "source" : 2
        }
    ],
    "images" : [
        {
            "mimeType" : "image/png",
            "name" : "IPHONE_Base_Color_2",
            "uri" : "IPHONE_Base_Color_2.png"
        },
        {
            "mimeType" : "image/png",
            "name" : "IPHONE_Metallic-IPHONE_Roughness",
            "uri" : "IPHONE_Metallic-IPHONE_Roughness.png"
        },
        {
            "mimeType" : "image/png",
            "name" : "Register Vector_Dark",
            "uri" : "Register%20Vector_Dark.png"
        }
    ],
    "accessors" : [
        {
            "bufferView" : 0,
            "componentType" : 5126,
            "count" : 15947,
            "max" : [
                0.041927047073841095,
                0.08322542905807495,
                0.008798365481197834
            ],
            "min" : [
                -0.041927073150873184,
                -0.08322542905807495,
                -0.001397979911416769
            ],
            "type" : "VEC3"
        },
        {
            "bufferView" : 1,
            "componentType" : 5126,
            "count" : 15947,
            "type" : "VEC3"
        },
        {
            "bufferView" : 2,
            "componentType" : 5126,
            "count" : 15947,
            "type" : "VEC2"
        },
        {
            "bufferView" : 3,
            "componentType" : 5123,
            "count" : 79632,
            "type" : "SCALAR"
        },
        {
            "bufferView" : 4,
            "componentType" : 5126,
            "count" : 144,
            "max" : [
                0.0363992340862751,
                0.07822632044553757,
                0.007992624305188656
            ],
            "min" : [
                -0.0363992340862751,
                -0.07822632044553757,
                0.007992614060640335
            ],
            "type" : "VEC3"
        },
        {
            "bufferView" : 5,
            "componentType" : 5126,
            "count" : 144,
            "type" : "VEC3"
        },
        {
            "bufferView" : 6,
            "componentType" : 5126,
            "count" : 144,
            "type" : "VEC2"
        },
        {
            "bufferView" : 7,
            "componentType" : 5123,
            "count" : 216,
            "type" : "SCALAR"
        },
        {
            "bufferView" : 8,
            "componentType" : 5126,
            "count" : 1604,
            "max" : [
                0.03631781414151192,
                0.07817436009645462,
                0.008705158717930317
            ],
            "min" : [
                -0.03631781414151192,
                -0.07817436009645462,
                -0.0014115242520347238
            ],
            "type" : "VEC3"
        },
        {
            "bufferView" : 9,
            "componentType" : 5126,
            "count" : 1604,
            "type" : "VEC3"
        },
        {
            "bufferView" : 10,
            "componentType" : 5126,
            "count" : 1604,
            "type" : "VEC2"
        },
        {
            "bufferView" : 11,
            "componentType" : 5123,
            "count" : 9600,
            "type" : "SCALAR"
        }
    ],
    "bufferViews" : [
        {
            "buffer" : 0,
            "byteLength" : 191364,
            "byteOffset" : 0
        },
        {
            "buffer" : 0,
            "byteLength" : 191364,
            "byteOffset" : 191364
        },
        {
            "buffer" : 0,
            "byteLength" : 127576,
            "byteOffset" : 382728
        },
        {
            "buffer" : 0,
            "byteLength" : 159264,
            "byteOffset" : 510304
        },
        {
            "buffer" : 0,
            "byteLength" : 1728,
            "byteOffset" : 669568
        },
        {
            "buffer" : 0,
            "byteLength" : 1728,
            "byteOffset" : 671296
        },
        {
            "buffer" : 0,
            "byteLength" : 1152,
            "byteOffset" : 673024
        },
        {
            "buffer" : 0,
            "byteLength" : 432,
            "byteOffset" : 674176
        },
        {
            "buffer" : 0,
            "byteLength" : 19248,
            "byteOffset" : 674608
        },
        {
            "buffer" : 0,
            "byteLength" : 19248,
            "byteOffset" : 693856
        },
        {
            "buffer" : 0,
            "byteLength" : 12832,
            "byteOffset" : 713104
        },
        {
            "buffer" : 0,
            "byteLength" : 19200,
            "byteOffset" : 725936
        }
    ],
    "samplers" : [
        {
            "magFilter" : 9729,
            "minFilter" : 9986
        }
    ],
    "buffers" : [
        {
            "byteLength" : 745136,
            "uri" : "iPhone.bin"
        }
    ]
}
