<svg width="113" height="113" viewBox="0 0 113 113" fill="none" xmlns="http://www.w3.org/2000/svg">
<circle cx="56.5" cy="56.5" r="56.5" fill="#74BFE1"/>
<path d="M75.9354 84.6455L71.0604 88.2205L66.3154 84.5805L61.4404 88.2205L56.6304 84.5805L51.7554 88.2205L46.8804 84.5805L42.0054 88.2205L37.1954 84.6455L32.7754 88.3505L27.3154 83.5405V24.5205H85.8154V83.4755L80.2904 88.3505L75.9354 84.6455V84.6455Z" fill="white"/>
<path d="M66.9653 37.3252L43.8253 67.6152L46.2303 69.4352L69.3703 39.1452L66.9653 37.3252ZM49.8053 51.0402C45.8403 51.0402 42.6553 47.8552 42.6553 43.8902C42.6553 39.9252 45.8403 36.7402 49.8053 36.7402C53.7703 36.7402 56.9553 39.9252 56.9553 43.8902C56.9553 47.8552 53.7703 51.0402 49.8053 51.0402ZM49.8053 39.7302C47.4653 39.7302 45.6453 41.6152 45.6453 43.8902C45.6453 46.2302 47.5303 48.0502 49.8053 48.0502C52.1453 48.0502 53.9653 46.1652 53.9653 43.8902C54.0303 41.6152 52.1453 39.7302 49.8053 39.7302ZM63.3253 70.2152C59.3603 70.2152 56.1753 67.0302 56.1753 63.0652C56.1753 59.1002 59.3603 55.9152 63.3253 55.9152C67.2903 55.9152 70.4753 59.1002 70.4753 63.0652C70.4753 67.0302 67.2903 70.2152 63.3253 70.2152ZM63.3253 58.9052C60.9853 58.9052 59.1653 60.7902 59.1653 63.0652C59.1653 65.4052 61.0503 67.2252 63.3253 67.2252C65.6653 67.2252 67.4853 65.3402 67.4853 63.0652C67.5503 60.7902 65.6653 58.9052 63.3253 58.9052V58.9052Z" fill="#36AED8"/>
</svg>
