<svg width="113" height="113" viewBox="0 0 113 113" fill="none" xmlns="http://www.w3.org/2000/svg">
<circle cx="56.5" cy="56.5" r="56.5" fill="#74BFE1"/>
<path d="M56.0621 52.3503L68.1521 47.5763V47.5143L76.4601 44.2903L68.0901 47.5143L38.2061 36.0443L39.8801 35.4242L25.6201 40.3843L34.6721 43.9803L41.2441 46.5843L56.0621 52.3503ZM77.9481 43.6703L76.4601 44.2903L78.0101 43.6703L86.1941 40.4463L73.2361 36.1062L55.5661 29.9062L48.1261 32.5102L77.9481 43.6703Z" fill="#9FDAE2"/>
<path d="M55.9381 52.4118L41.2441 46.5838L34.6721 43.9798L25.6201 40.3838V72.1898L56.0001 84.1558L55.9381 52.4118V52.4118Z" fill="#52A5C2"/>
<path d="M86.1935 40.4458L78.0095 43.6698V60.6578L68.1515 64.6258V47.5758L56.0615 52.3498L55.9375 52.4118L55.9995 84.1558V84.2178H56.0615L64.1835 80.9938L86.3175 72.0658V40.3838L86.1935 40.4458Z" fill="white"/>
<path d="M68.0901 47.5138L76.4601 44.2898L77.9481 43.6698L48.1261 32.5098L39.8801 35.4238L38.2061 36.0438L68.0901 47.5138Z" fill="#52A5C2"/>
<path d="M76.4603 44.2899L68.1523 47.5139V64.6259L78.0103 60.6579V43.6699L76.4603 44.2899Z" fill="#9FDAE2"/>
</svg>
