<svg width="113" height="113" viewBox="0 0 113 113" fill="none" xmlns="http://www.w3.org/2000/svg">
<circle cx="56.5" cy="56.5" r="56.5" fill="#74BFE1"/>
<path d="M28.2202 68.8502C26.9602 68.8502 25.9102 67.8002 25.9102 66.5402V41.5502C25.9102 40.2902 26.9602 39.2402 28.2202 39.2402H68.8202C70.0802 39.2402 71.1302 40.2902 71.1302 41.5502V47.6402H52.8602C50.6902 47.6402 48.9402 49.3902 48.9402 51.5602V68.8502H28.2202Z" fill="#F0EFED"/>
<path d="M31.3697 51.6997H40.7497C41.1697 51.6997 41.5197 51.3497 41.5197 50.9297V44.6997C41.5197 44.2797 41.1697 43.9297 40.7497 43.9297H31.3697C30.9497 43.9297 30.5997 44.2797 30.5997 44.6997V50.9297C30.5297 51.3497 30.8797 51.6997 31.3697 51.6997ZM32.1397 45.4697H39.9097V50.1597H32.1397V45.4697ZM37.5997 59.5397H31.3697C30.9497 59.5397 30.5997 59.8897 30.5997 60.3097C30.5997 60.7297 30.9497 61.0797 31.3697 61.0797H37.5997C38.0197 61.0797 38.3697 60.7297 38.3697 60.3097C38.3697 59.8897 38.0197 59.5397 37.5997 59.5397ZM46.9097 59.5397H40.6797C40.2597 59.5397 39.9097 59.8897 39.9097 60.3097C39.9097 60.7297 40.2597 61.0797 40.6797 61.0797H46.9097C47.3297 61.0797 47.6797 60.7297 47.6797 60.3097C47.7497 59.8897 47.3997 59.5397 46.9097 59.5397V59.5397Z" fill="#52A5C2"/>
<path d="M71.1303 44.8398H50.0603C47.8903 44.8398 46.0703 46.5898 46.0703 48.8298V68.9198H71.1303V44.8398V44.8398Z" fill="#D1D1D1"/>
<path d="M94.0901 74.8697C94.0901 76.1297 93.0401 77.1797 91.7801 77.1797H51.1801C49.9201 77.1797 48.8701 76.1297 48.8701 74.8697V49.9496C48.8701 48.6896 49.9201 47.6396 51.1801 47.6396H91.7801C93.0401 47.6396 94.0901 48.6896 94.0901 49.9496V74.8697Z" fill="white"/>
<path d="M81.6298 72.0699C82.0498 72.0699 82.4698 71.9999 82.8198 71.8599C82.0498 71.0899 81.5598 69.9699 81.5598 68.8499C81.5598 67.6599 82.0498 66.6099 82.8198 65.8399C82.4698 65.6999 82.0498 65.6299 81.6298 65.6299C79.8098 65.6299 78.3398 67.0999 78.3398 68.9199C78.4098 70.5999 79.8098 72.0699 81.6298 72.0699V72.0699Z" fill="#52A5C2"/>
<path d="M86.3203 72.0702C88.1373 72.0702 89.6103 70.5972 89.6103 68.7802C89.6103 66.9632 88.1373 65.4902 86.3203 65.4902C84.5033 65.4902 83.0303 66.9632 83.0303 68.7802C83.0303 70.5972 84.5033 72.0702 86.3203 72.0702Z" fill="#52A5C2"/>
<path d="M48.8701 54.1504H94.0901V59.4004H48.8701V54.1504Z" fill="#52A5C2"/>
</svg>
